solid OpenSCAD_Model
  facet normal -0 0 -1
    outer loop
      vertex 1.74081 3.21991 0
      vertex 1.39999 3.14372 0
      vertex 2.16312 3.34259 0
    endloop
  endfacet
  facet normal -0 0 -1
    outer loop
      vertex 1.74081 16.7801 0
      vertex 1.39999 3.14372 0
      vertex 0.877319 16.9448 0
    endloop
  endfacet
  facet normal 0 0 -1
    outer loop
      vertex 1.39999 3.14372 0
      vertex 2.57686 3.49156 0
      vertex 2.16312 3.34259 0
    endloop
  endfacet
  facet normal 0 0 -1
    outer loop
      vertex 1.39999 3.14372 0
      vertex 2.98045 3.6662 0
      vertex 2.57686 3.49156 0
    endloop
  endfacet
  facet normal 0 0 -1
    outer loop
      vertex 1.39999 3.14372 0
      vertex 3.37227 3.86584 0
      vertex 2.98045 3.6662 0
    endloop
  endfacet
  facet normal 0 0 -1
    outer loop
      vertex 1.39999 3.14372 0
      vertex 3.75078 4.08969 0
      vertex 3.37227 3.86584 0
    endloop
  endfacet
  facet normal 0 0 -1
    outer loop
      vertex 1.39999 3.14372 0
      vertex 4.11449 4.33687 0
      vertex 3.75078 4.08969 0
    endloop
  endfacet
  facet normal 0 0 -1
    outer loop
      vertex 1.39999 3.14372 0
      vertex 4.46196 4.6064 0
      vertex 4.11449 4.33687 0
    endloop
  endfacet
  facet normal 0 0 -1
    outer loop
      vertex 1.39999 3.14372 0
      vertex 4.79182 4.89722 0
      vertex 4.46196 4.6064 0
    endloop
  endfacet
  facet normal 0 0 -1
    outer loop
      vertex 1.39999 3.14372 0
      vertex 5.10277 5.20816 0
      vertex 4.79182 4.89722 0
    endloop
  endfacet
  facet normal 0 0 -1
    outer loop
      vertex 1.39999 3.14372 0
      vertex 5.39359 5.53802 0
      vertex 5.10277 5.20816 0
    endloop
  endfacet
  facet normal 0 0 -1
    outer loop
      vertex 1.39999 3.14372 0
      vertex 5.66312 5.8855 0
      vertex 5.39359 5.53802 0
    endloop
  endfacet
  facet normal 0 0 -1
    outer loop
      vertex 1.39999 3.14372 0
      vertex 5.91029 6.24921 0
      vertex 5.66312 5.8855 0
    endloop
  endfacet
  facet normal 0 0 -1
    outer loop
      vertex 1.39999 3.14372 0
      vertex 6.13414 6.62772 0
      vertex 5.91029 6.24921 0
    endloop
  endfacet
  facet normal 0 0 -1
    outer loop
      vertex 1.39999 3.14372 0
      vertex 6.33379 7.01953 0
      vertex 6.13414 6.62772 0
    endloop
  endfacet
  facet normal 0 0 -1
    outer loop
      vertex 1.39999 3.14372 0
      vertex 6.50842 7.42313 0
      vertex 6.33379 7.01953 0
    endloop
  endfacet
  facet normal 0 0 -1
    outer loop
      vertex 6.78008 8.25917 0
      vertex 6.65739 7.83687 0
      vertex 6.50842 7.42313 0
    endloop
  endfacet
  facet normal 0 0 -1
    outer loop
      vertex 1.39999 3.14372 0
      vertex 6.78008 8.25917 0
      vertex 6.50842 7.42313 0
    endloop
  endfacet
  facet normal 0 0 -1
    outer loop
      vertex 1.39999 3.14372 0
      vertex 6.87601 8.68832 0
      vertex 6.78008 8.25917 0
    endloop
  endfacet
  facet normal 0 0 -1
    outer loop
      vertex 1.39999 3.14372 0
      vertex 6.94479 9.12267 0
      vertex 6.87601 8.68832 0
    endloop
  endfacet
  facet normal 0 0 -1
    outer loop
      vertex 1.39999 3.14372 0
      vertex 6.98618 9.56046 0
      vertex 6.94479 9.12267 0
    endloop
  endfacet
  facet normal 0 0 -1
    outer loop
      vertex 6.98618 10.4395 0
      vertex 7 10 0
      vertex 6.98618 9.56046 0
    endloop
  endfacet
  facet normal 0 0 -1
    outer loop
      vertex 1.39999 3.14372 0
      vertex 6.98618 10.4395 0
      vertex 6.98618 9.56046 0
    endloop
  endfacet
  facet normal 0 0 -1
    outer loop
      vertex 1.39999 3.14372 0
      vertex 6.94479 10.8773 0
      vertex 6.98618 10.4395 0
    endloop
  endfacet
  facet normal 0 0 -1
    outer loop
      vertex 6.78008 11.7408 0
      vertex 6.87601 11.3117 0
      vertex 6.94479 10.8773 0
    endloop
  endfacet
  facet normal 0 0 -1
    outer loop
      vertex 1.39999 3.14372 0
      vertex 6.78008 11.7408 0
      vertex 6.94479 10.8773 0
    endloop
  endfacet
  facet normal 0 0 -1
    outer loop
      vertex 6.50842 12.5769 0
      vertex 6.65739 12.1631 0
      vertex 6.78008 11.7408 0
    endloop
  endfacet
  facet normal 0 0 -1
    outer loop
      vertex 1.39999 3.14372 0
      vertex 6.50842 12.5769 0
      vertex 6.78008 11.7408 0
    endloop
  endfacet
  facet normal 0 0 -1
    outer loop
      vertex 6.13414 13.3723 0
      vertex 6.33379 12.9805 0
      vertex 6.50842 12.5769 0
    endloop
  endfacet
  facet normal 0 0 -1
    outer loop
      vertex 1.39999 3.14372 0
      vertex 6.13414 13.3723 0
      vertex 6.50842 12.5769 0
    endloop
  endfacet
  facet normal 0 0 -1
    outer loop
      vertex 1.39999 3.14372 0
      vertex 5.91029 13.7508 0
      vertex 6.13414 13.3723 0
    endloop
  endfacet
  facet normal 0 0 -1
    outer loop
      vertex 1.39999 3.14372 0
      vertex 5.66312 14.1145 0
      vertex 5.91029 13.7508 0
    endloop
  endfacet
  facet normal 0 0 -1
    outer loop
      vertex 1.39999 3.14372 0
      vertex 5.39359 14.462 0
      vertex 5.66312 14.1145 0
    endloop
  endfacet
  facet normal 0 0 -1
    outer loop
      vertex 1.39999 3.14372 0
      vertex 5.10277 14.7918 0
      vertex 5.39359 14.462 0
    endloop
  endfacet
  facet normal 0 0 -1
    outer loop
      vertex 1.39999 3.14372 0
      vertex 4.79182 15.1028 0
      vertex 5.10277 14.7918 0
    endloop
  endfacet
  facet normal 0 0 -1
    outer loop
      vertex 1.39999 3.14372 0
      vertex 4.46196 15.3936 0
      vertex 4.79182 15.1028 0
    endloop
  endfacet
  facet normal 0 0 -1
    outer loop
      vertex 1.39999 3.14372 0
      vertex 4.11449 15.6631 0
      vertex 4.46196 15.3936 0
    endloop
  endfacet
  facet normal 0 0 -1
    outer loop
      vertex 1.39999 3.14372 0
      vertex 3.75078 15.9103 0
      vertex 4.11449 15.6631 0
    endloop
  endfacet
  facet normal 0 0 -1
    outer loop
      vertex 1.39999 3.14372 0
      vertex 3.37227 16.1341 0
      vertex 3.75078 15.9103 0
    endloop
  endfacet
  facet normal 0 0 -1
    outer loop
      vertex 2.57686 16.5084 0
      vertex 2.98045 16.3338 0
      vertex 3.37227 16.1341 0
    endloop
  endfacet
  facet normal 0 0 -1
    outer loop
      vertex 1.39999 3.14372 0
      vertex 2.57686 16.5084 0
      vertex 3.37227 16.1341 0
    endloop
  endfacet
  facet normal 0 0 -1
    outer loop
      vertex 1.74081 16.7801 0
      vertex 2.16312 16.6574 0
      vertex 2.57686 16.5084 0
    endloop
  endfacet
  facet normal 0 0 -1
    outer loop
      vertex 1.39999 3.14372 0
      vertex 1.74081 16.7801 0
      vertex 2.57686 16.5084 0
    endloop
  endfacet
  facet normal 0 0 -1
    outer loop
      vertex 0.877319 16.9448 0
      vertex 1.31166 16.876 0
      vertex 1.74081 16.7801 0
    endloop
  endfacet
  facet normal 0 0 -1
    outer loop
      vertex 0.439529 16.9862 0
      vertex 0.877319 16.9448 0
      vertex 1.39999 3.14372 0
    endloop
  endfacet
  facet normal 0 -0 -1
    outer loop
      vertex 0 17 0
      vertex 0.439529 16.9862 0
      vertex -0.439529 16.9862 0
    endloop
  endfacet
  facet normal 0 -0 -1
    outer loop
      vertex -0.439529 16.9862 0
      vertex 0.439529 16.9862 0
      vertex -1.39999 3.14372 0
    endloop
  endfacet
  facet normal 0 -0 -1
    outer loop
      vertex -0.877319 16.9448 0
      vertex -0.439529 16.9862 0
      vertex -1.39999 3.14372 0
    endloop
  endfacet
  facet normal 0 -0 -1
    outer loop
      vertex -1.31166 16.876 0
      vertex -0.877319 16.9448 0
      vertex -1.74081 16.7801 0
    endloop
  endfacet
  facet normal 0 0 -1
    outer loop
      vertex -1.74081 16.7801 0
      vertex -0.877319 16.9448 0
      vertex -1.39999 3.14372 0
    endloop
  endfacet
  facet normal 0 -0 -1
    outer loop
      vertex -2.16312 16.6574 0
      vertex -1.74081 16.7801 0
      vertex -2.57686 16.5084 0
    endloop
  endfacet
  facet normal 0 0 -1
    outer loop
      vertex -2.57686 16.5084 0
      vertex -1.74081 16.7801 0
      vertex -1.39999 3.14372 0
    endloop
  endfacet
  facet normal 0 -0 -1
    outer loop
      vertex -2.98045 16.3338 0
      vertex -2.57686 16.5084 0
      vertex -3.37227 16.1341 0
    endloop
  endfacet
  facet normal 0 0 -1
    outer loop
      vertex -3.37227 16.1341 0
      vertex -2.57686 16.5084 0
      vertex -1.39999 3.14372 0
    endloop
  endfacet
  facet normal 0 0 -1
    outer loop
      vertex -3.75078 15.9103 0
      vertex -3.37227 16.1341 0
      vertex -1.39999 3.14372 0
    endloop
  endfacet
  facet normal 0 0 -1
    outer loop
      vertex -4.11449 15.6631 0
      vertex -3.75078 15.9103 0
      vertex -1.39999 3.14372 0
    endloop
  endfacet
  facet normal 0 0 -1
    outer loop
      vertex -4.46196 15.3936 0
      vertex -4.11449 15.6631 0
      vertex -1.39999 3.14372 0
    endloop
  endfacet
  facet normal 0 0 -1
    outer loop
      vertex -4.79182 15.1028 0
      vertex -4.46196 15.3936 0
      vertex -1.39999 3.14372 0
    endloop
  endfacet
  facet normal 0 0 -1
    outer loop
      vertex -5.10277 14.7918 0
      vertex -4.79182 15.1028 0
      vertex -1.39999 3.14372 0
    endloop
  endfacet
  facet normal 0 0 -1
    outer loop
      vertex -5.39359 14.462 0
      vertex -5.10277 14.7918 0
      vertex -1.39999 3.14372 0
    endloop
  endfacet
  facet normal 0 0 -1
    outer loop
      vertex -5.66312 14.1145 0
      vertex -5.39359 14.462 0
      vertex -1.39999 3.14372 0
    endloop
  endfacet
  facet normal 0 0 -1
    outer loop
      vertex -5.91029 13.7508 0
      vertex -5.66312 14.1145 0
      vertex -1.39999 3.14372 0
    endloop
  endfacet
  facet normal 0 0 -1
    outer loop
      vertex -6.13414 13.3723 0
      vertex -5.91029 13.7508 0
      vertex -1.39999 3.14372 0
    endloop
  endfacet
  facet normal 0 -0 -1
    outer loop
      vertex -6.33379 12.9805 0
      vertex -6.13414 13.3723 0
      vertex -6.50842 12.5769 0
    endloop
  endfacet
  facet normal 0 0 -1
    outer loop
      vertex -6.50842 12.5769 0
      vertex -6.13414 13.3723 0
      vertex -1.39999 3.14372 0
    endloop
  endfacet
  facet normal 0 -0 -1
    outer loop
      vertex -6.65739 12.1631 0
      vertex -6.50842 12.5769 0
      vertex -6.78008 11.7408 0
    endloop
  endfacet
  facet normal 0 0 -1
    outer loop
      vertex -6.78008 11.7408 0
      vertex -6.50842 12.5769 0
      vertex -1.39999 3.14372 0
    endloop
  endfacet
  facet normal 0 -0 -1
    outer loop
      vertex -6.87601 11.3117 0
      vertex -6.78008 11.7408 0
      vertex -6.94479 10.8773 0
    endloop
  endfacet
  facet normal 0 0 -1
    outer loop
      vertex -6.94479 10.8773 0
      vertex -6.78008 11.7408 0
      vertex -1.39999 3.14372 0
    endloop
  endfacet
  facet normal 0 0 -1
    outer loop
      vertex -6.98618 10.4395 0
      vertex -6.94479 10.8773 0
      vertex -1.39999 3.14372 0
    endloop
  endfacet
  facet normal 0 0 -1
    outer loop
      vertex -7 10 0
      vertex -6.98618 10.4395 0
      vertex -6.98618 9.56046 0
    endloop
  endfacet
  facet normal 0 0 -1
    outer loop
      vertex -6.98618 9.56046 0
      vertex -6.98618 10.4395 0
      vertex -1.39999 3.14372 0
    endloop
  endfacet
  facet normal 0 0 -1
    outer loop
      vertex -6.94479 9.12267 0
      vertex -6.98618 9.56046 0
      vertex -1.39999 3.14372 0
    endloop
  endfacet
  facet normal 0 0 -1
    outer loop
      vertex -6.87601 8.68832 0
      vertex -1.39999 3.14372 0
      vertex -6.78008 8.25917 0
    endloop
  endfacet
  facet normal 0 0 -1
    outer loop
      vertex -6.87601 8.68832 0
      vertex -6.94479 9.12267 0
      vertex -1.39999 3.14372 0
    endloop
  endfacet
  facet normal 0 0 -1
    outer loop
      vertex -6.65739 7.83687 0
      vertex -6.78008 8.25917 0
      vertex -6.50842 7.42313 0
    endloop
  endfacet
  facet normal 0 0 -1
    outer loop
      vertex -6.50842 7.42313 0
      vertex -6.78008 8.25917 0
      vertex -1.39999 3.14372 0
    endloop
  endfacet
  facet normal 0 0 -1
    outer loop
      vertex -6.33379 7.01953 0
      vertex -1.39999 3.14372 0
      vertex -6.13414 6.62772 0
    endloop
  endfacet
  facet normal 0 0 -1
    outer loop
      vertex -6.33379 7.01953 0
      vertex -6.50842 7.42313 0
      vertex -1.39999 3.14372 0
    endloop
  endfacet
  facet normal 0 0 -1
    outer loop
      vertex -5.91029 6.24921 0
      vertex -6.13414 6.62772 0
      vertex -1.39999 3.14372 0
    endloop
  endfacet
  facet normal 0 0 -1
    outer loop
      vertex -5.66312 5.8855 0
      vertex -5.91029 6.24921 0
      vertex -1.39999 3.14372 0
    endloop
  endfacet
  facet normal 0 0 -1
    outer loop
      vertex -5.39359 5.53802 0
      vertex -5.66312 5.8855 0
      vertex -1.39999 3.14372 0
    endloop
  endfacet
  facet normal 0 0 -1
    outer loop
      vertex -5.10277 5.20816 0
      vertex -5.39359 5.53802 0
      vertex -1.39999 3.14372 0
    endloop
  endfacet
  facet normal 0 0 -1
    outer loop
      vertex -4.79182 4.89722 0
      vertex -5.10277 5.20816 0
      vertex -1.39999 3.14372 0
    endloop
  endfacet
  facet normal 0 0 -1
    outer loop
      vertex -4.46196 4.6064 0
      vertex -4.79182 4.89722 0
      vertex -1.39999 3.14372 0
    endloop
  endfacet
  facet normal 0 0 -1
    outer loop
      vertex -4.11449 4.33687 0
      vertex -4.46196 4.6064 0
      vertex -1.39999 3.14372 0
    endloop
  endfacet
  facet normal 0 0 -1
    outer loop
      vertex -3.75078 4.08969 0
      vertex -4.11449 4.33687 0
      vertex -1.39999 3.14372 0
    endloop
  endfacet
  facet normal 0 0 -1
    outer loop
      vertex -3.37227 3.86584 0
      vertex -3.75078 4.08969 0
      vertex -1.39999 3.14372 0
    endloop
  endfacet
  facet normal 0 0 -1
    outer loop
      vertex -2.98045 3.6662 0
      vertex -3.37227 3.86584 0
      vertex -1.39999 3.14372 0
    endloop
  endfacet
  facet normal 0 0 -1
    outer loop
      vertex -2.57686 3.49156 0
      vertex -2.98045 3.6662 0
      vertex -1.39999 3.14372 0
    endloop
  endfacet
  facet normal 0 0 -1
    outer loop
      vertex -2.16312 3.34259 0
      vertex -2.57686 3.49156 0
      vertex -1.39999 3.14372 0
    endloop
  endfacet
  facet normal 0 0 -1
    outer loop
      vertex -1.74081 3.21991 0
      vertex -2.16312 3.34259 0
      vertex -1.39999 3.14372 0
    endloop
  endfacet
  facet normal 0 0 -1
    outer loop
      vertex 1.39999 0 0
      vertex -1.39999 3.14372 0
      vertex 1.39999 3.14372 0
    endloop
  endfacet
  facet normal 0 0 -1
    outer loop
      vertex -1.39999 3.14372 0
      vertex 0.439529 16.9862 0
      vertex 1.39999 3.14372 0
    endloop
  endfacet
  facet normal 0 0 -1
    outer loop
      vertex 1.39999 0 0
      vertex -1.39999 0 0
      vertex -1.39999 3.14372 0
    endloop
  endfacet
  facet normal 0 0 1
    outer loop
      vertex 2.16312 3.34259 1
      vertex 1.39999 3.14372 1
      vertex 1.74081 3.21991 1
    endloop
  endfacet
  facet normal 0 0 1
    outer loop
      vertex 0.877319 16.9448 1
      vertex 1.39999 3.14372 1
      vertex 1.74081 16.7801 1
    endloop
  endfacet
  facet normal 0 -0 1
    outer loop
      vertex 2.16312 3.34259 1
      vertex 2.57686 3.49156 1
      vertex 1.39999 3.14372 1
    endloop
  endfacet
  facet normal 0 -0 1
    outer loop
      vertex 2.57686 3.49156 1
      vertex 2.98045 3.6662 1
      vertex 1.39999 3.14372 1
    endloop
  endfacet
  facet normal 0 -0 1
    outer loop
      vertex 2.98045 3.6662 1
      vertex 3.37227 3.86584 1
      vertex 1.39999 3.14372 1
    endloop
  endfacet
  facet normal 0 -0 1
    outer loop
      vertex 3.37227 3.86584 1
      vertex 3.75078 4.08969 1
      vertex 1.39999 3.14372 1
    endloop
  endfacet
  facet normal 0 -0 1
    outer loop
      vertex 3.75078 4.08969 1
      vertex 4.11449 4.33687 1
      vertex 1.39999 3.14372 1
    endloop
  endfacet
  facet normal 0 -0 1
    outer loop
      vertex 4.11449 4.33687 1
      vertex 4.46196 4.6064 1
      vertex 1.39999 3.14372 1
    endloop
  endfacet
  facet normal 0 -0 1
    outer loop
      vertex 4.46196 4.6064 1
      vertex 4.79182 4.89722 1
      vertex 1.39999 3.14372 1
    endloop
  endfacet
  facet normal 0 -0 1
    outer loop
      vertex 4.79182 4.89722 1
      vertex 5.10277 5.20816 1
      vertex 1.39999 3.14372 1
    endloop
  endfacet
  facet normal 0 -0 1
    outer loop
      vertex 5.10277 5.20816 1
      vertex 5.39359 5.53802 1
      vertex 1.39999 3.14372 1
    endloop
  endfacet
  facet normal 0 -0 1
    outer loop
      vertex 5.39359 5.53802 1
      vertex 5.66312 5.8855 1
      vertex 1.39999 3.14372 1
    endloop
  endfacet
  facet normal 0 -0 1
    outer loop
      vertex 5.66312 5.8855 1
      vertex 5.91029 6.24921 1
      vertex 1.39999 3.14372 1
    endloop
  endfacet
  facet normal 0 -0 1
    outer loop
      vertex 5.91029 6.24921 1
      vertex 6.13414 6.62772 1
      vertex 1.39999 3.14372 1
    endloop
  endfacet
  facet normal 0 -0 1
    outer loop
      vertex 6.13414 6.62772 1
      vertex 6.33379 7.01953 1
      vertex 1.39999 3.14372 1
    endloop
  endfacet
  facet normal 0 -0 1
    outer loop
      vertex 6.33379 7.01953 1
      vertex 6.50842 7.42313 1
      vertex 1.39999 3.14372 1
    endloop
  endfacet
  facet normal 0 0 1
    outer loop
      vertex 6.50842 7.42313 1
      vertex 6.65739 7.83687 1
      vertex 6.78008 8.25917 1
    endloop
  endfacet
  facet normal 0 -0 1
    outer loop
      vertex 6.50842 7.42313 1
      vertex 6.78008 8.25917 1
      vertex 1.39999 3.14372 1
    endloop
  endfacet
  facet normal 0 -0 1
    outer loop
      vertex 6.78008 8.25917 1
      vertex 6.87601 8.68832 1
      vertex 1.39999 3.14372 1
    endloop
  endfacet
  facet normal 0 -0 1
    outer loop
      vertex 6.87601 8.68832 1
      vertex 6.94479 9.12267 1
      vertex 1.39999 3.14372 1
    endloop
  endfacet
  facet normal 0 -0 1
    outer loop
      vertex 6.94479 9.12267 1
      vertex 6.98618 9.56046 1
      vertex 1.39999 3.14372 1
    endloop
  endfacet
  facet normal 0 0 1
    outer loop
      vertex 6.98618 9.56046 1
      vertex 7 10 1
      vertex 6.98618 10.4395 1
    endloop
  endfacet
  facet normal 0 -0 1
    outer loop
      vertex 6.98618 9.56046 1
      vertex 6.98618 10.4395 1
      vertex 1.39999 3.14372 1
    endloop
  endfacet
  facet normal 0 0 1
    outer loop
      vertex 6.98618 10.4395 1
      vertex 6.94479 10.8773 1
      vertex 1.39999 3.14372 1
    endloop
  endfacet
  facet normal 0 0 1
    outer loop
      vertex 6.94479 10.8773 1
      vertex 6.87601 11.3117 1
      vertex 6.78008 11.7408 1
    endloop
  endfacet
  facet normal 0 0 1
    outer loop
      vertex 6.94479 10.8773 1
      vertex 6.78008 11.7408 1
      vertex 1.39999 3.14372 1
    endloop
  endfacet
  facet normal 0 0 1
    outer loop
      vertex 6.78008 11.7408 1
      vertex 6.65739 12.1631 1
      vertex 6.50842 12.5769 1
    endloop
  endfacet
  facet normal 0 0 1
    outer loop
      vertex 6.78008 11.7408 1
      vertex 6.50842 12.5769 1
      vertex 1.39999 3.14372 1
    endloop
  endfacet
  facet normal 0 0 1
    outer loop
      vertex 6.50842 12.5769 1
      vertex 6.33379 12.9805 1
      vertex 6.13414 13.3723 1
    endloop
  endfacet
  facet normal 0 0 1
    outer loop
      vertex 6.50842 12.5769 1
      vertex 6.13414 13.3723 1
      vertex 1.39999 3.14372 1
    endloop
  endfacet
  facet normal 0 0 1
    outer loop
      vertex 6.13414 13.3723 1
      vertex 5.91029 13.7508 1
      vertex 1.39999 3.14372 1
    endloop
  endfacet
  facet normal 0 0 1
    outer loop
      vertex 5.91029 13.7508 1
      vertex 5.66312 14.1145 1
      vertex 1.39999 3.14372 1
    endloop
  endfacet
  facet normal 0 0 1
    outer loop
      vertex 5.66312 14.1145 1
      vertex 5.39359 14.462 1
      vertex 1.39999 3.14372 1
    endloop
  endfacet
  facet normal 0 0 1
    outer loop
      vertex 5.39359 14.462 1
      vertex 5.10277 14.7918 1
      vertex 1.39999 3.14372 1
    endloop
  endfacet
  facet normal 0 0 1
    outer loop
      vertex 5.10277 14.7918 1
      vertex 4.79182 15.1028 1
      vertex 1.39999 3.14372 1
    endloop
  endfacet
  facet normal 0 0 1
    outer loop
      vertex 4.79182 15.1028 1
      vertex 4.46196 15.3936 1
      vertex 1.39999 3.14372 1
    endloop
  endfacet
  facet normal 0 0 1
    outer loop
      vertex 4.46196 15.3936 1
      vertex 4.11449 15.6631 1
      vertex 1.39999 3.14372 1
    endloop
  endfacet
  facet normal 0 0 1
    outer loop
      vertex 4.11449 15.6631 1
      vertex 3.75078 15.9103 1
      vertex 1.39999 3.14372 1
    endloop
  endfacet
  facet normal 0 0 1
    outer loop
      vertex 3.75078 15.9103 1
      vertex 3.37227 16.1341 1
      vertex 1.39999 3.14372 1
    endloop
  endfacet
  facet normal 0 0 1
    outer loop
      vertex 3.37227 16.1341 1
      vertex 2.98045 16.3338 1
      vertex 2.57686 16.5084 1
    endloop
  endfacet
  facet normal 0 0 1
    outer loop
      vertex 3.37227 16.1341 1
      vertex 2.57686 16.5084 1
      vertex 1.39999 3.14372 1
    endloop
  endfacet
  facet normal 0 0 1
    outer loop
      vertex 2.57686 16.5084 1
      vertex 2.16312 16.6574 1
      vertex 1.74081 16.7801 1
    endloop
  endfacet
  facet normal 0 0 1
    outer loop
      vertex 2.57686 16.5084 1
      vertex 1.74081 16.7801 1
      vertex 1.39999 3.14372 1
    endloop
  endfacet
  facet normal 0 0 1
    outer loop
      vertex 1.74081 16.7801 1
      vertex 1.31166 16.876 1
      vertex 0.877319 16.9448 1
    endloop
  endfacet
  facet normal 0 0 1
    outer loop
      vertex 1.39999 3.14372 1
      vertex 0.877319 16.9448 1
      vertex 0.439529 16.9862 1
    endloop
  endfacet
  facet normal 0 0 1
    outer loop
      vertex -0.439529 16.9862 1
      vertex 0.439529 16.9862 1
      vertex 0 17 1
    endloop
  endfacet
  facet normal 0 0 1
    outer loop
      vertex -1.39999 3.14372 1
      vertex 0.439529 16.9862 1
      vertex -0.439529 16.9862 1
    endloop
  endfacet
  facet normal 0 0 1
    outer loop
      vertex -1.39999 3.14372 1
      vertex -0.439529 16.9862 1
      vertex -0.877319 16.9448 1
    endloop
  endfacet
  facet normal 0 0 1
    outer loop
      vertex -1.74081 16.7801 1
      vertex -0.877319 16.9448 1
      vertex -1.31166 16.876 1
    endloop
  endfacet
  facet normal 0 -0 1
    outer loop
      vertex -1.39999 3.14372 1
      vertex -0.877319 16.9448 1
      vertex -1.74081 16.7801 1
    endloop
  endfacet
  facet normal 0 0 1
    outer loop
      vertex -2.57686 16.5084 1
      vertex -1.74081 16.7801 1
      vertex -2.16312 16.6574 1
    endloop
  endfacet
  facet normal 0 0 1
    outer loop
      vertex -1.39999 3.14372 1
      vertex -1.74081 16.7801 1
      vertex -2.57686 16.5084 1
    endloop
  endfacet
  facet normal 0 0 1
    outer loop
      vertex -3.37227 16.1341 1
      vertex -2.57686 16.5084 1
      vertex -2.98045 16.3338 1
    endloop
  endfacet
  facet normal 0 0 1
    outer loop
      vertex -1.39999 3.14372 1
      vertex -2.57686 16.5084 1
      vertex -3.37227 16.1341 1
    endloop
  endfacet
  facet normal 0 0 1
    outer loop
      vertex -1.39999 3.14372 1
      vertex -3.37227 16.1341 1
      vertex -3.75078 15.9103 1
    endloop
  endfacet
  facet normal 0 0 1
    outer loop
      vertex -1.39999 3.14372 1
      vertex -3.75078 15.9103 1
      vertex -4.11449 15.6631 1
    endloop
  endfacet
  facet normal 0 0 1
    outer loop
      vertex -1.39999 3.14372 1
      vertex -4.11449 15.6631 1
      vertex -4.46196 15.3936 1
    endloop
  endfacet
  facet normal 0 0 1
    outer loop
      vertex -1.39999 3.14372 1
      vertex -4.46196 15.3936 1
      vertex -4.79182 15.1028 1
    endloop
  endfacet
  facet normal 0 0 1
    outer loop
      vertex -1.39999 3.14372 1
      vertex -4.79182 15.1028 1
      vertex -5.10277 14.7918 1
    endloop
  endfacet
  facet normal 0 0 1
    outer loop
      vertex -1.39999 3.14372 1
      vertex -5.10277 14.7918 1
      vertex -5.39359 14.462 1
    endloop
  endfacet
  facet normal 0 0 1
    outer loop
      vertex -1.39999 3.14372 1
      vertex -5.39359 14.462 1
      vertex -5.66312 14.1145 1
    endloop
  endfacet
  facet normal 0 0 1
    outer loop
      vertex -1.39999 3.14372 1
      vertex -5.66312 14.1145 1
      vertex -5.91029 13.7508 1
    endloop
  endfacet
  facet normal 0 0 1
    outer loop
      vertex -1.39999 3.14372 1
      vertex -5.91029 13.7508 1
      vertex -6.13414 13.3723 1
    endloop
  endfacet
  facet normal 0 0 1
    outer loop
      vertex -6.50842 12.5769 1
      vertex -6.13414 13.3723 1
      vertex -6.33379 12.9805 1
    endloop
  endfacet
  facet normal 0 0 1
    outer loop
      vertex -1.39999 3.14372 1
      vertex -6.13414 13.3723 1
      vertex -6.50842 12.5769 1
    endloop
  endfacet
  facet normal 0 0 1
    outer loop
      vertex -6.78008 11.7408 1
      vertex -6.50842 12.5769 1
      vertex -6.65739 12.1631 1
    endloop
  endfacet
  facet normal 0 0 1
    outer loop
      vertex -1.39999 3.14372 1
      vertex -6.50842 12.5769 1
      vertex -6.78008 11.7408 1
    endloop
  endfacet
  facet normal 0 0 1
    outer loop
      vertex -6.94479 10.8773 1
      vertex -6.78008 11.7408 1
      vertex -6.87601 11.3117 1
    endloop
  endfacet
  facet normal 0 0 1
    outer loop
      vertex -1.39999 3.14372 1
      vertex -6.78008 11.7408 1
      vertex -6.94479 10.8773 1
    endloop
  endfacet
  facet normal 0 0 1
    outer loop
      vertex -1.39999 3.14372 1
      vertex -6.94479 10.8773 1
      vertex -6.98618 10.4395 1
    endloop
  endfacet
  facet normal 0 -0 1
    outer loop
      vertex -6.98618 9.56046 1
      vertex -6.98618 10.4395 1
      vertex -7 10 1
    endloop
  endfacet
  facet normal 0 0 1
    outer loop
      vertex -1.39999 3.14372 1
      vertex -6.98618 10.4395 1
      vertex -6.98618 9.56046 1
    endloop
  endfacet
  facet normal 0 0 1
    outer loop
      vertex -1.39999 3.14372 1
      vertex -6.98618 9.56046 1
      vertex -6.94479 9.12267 1
    endloop
  endfacet
  facet normal -0 -0 1
    outer loop
      vertex -6.78008 8.25917 1
      vertex -1.39999 3.14372 1
      vertex -6.87601 8.68832 1
    endloop
  endfacet
  facet normal 0 0 1
    outer loop
      vertex -1.39999 3.14372 1
      vertex -6.94479 9.12267 1
      vertex -6.87601 8.68832 1
    endloop
  endfacet
  facet normal 0 0 1
    outer loop
      vertex -6.50842 7.42313 1
      vertex -6.78008 8.25917 1
      vertex -6.65739 7.83687 1
    endloop
  endfacet
  facet normal 0 0 1
    outer loop
      vertex -1.39999 3.14372 1
      vertex -6.78008 8.25917 1
      vertex -6.50842 7.42313 1
    endloop
  endfacet
  facet normal -0 -0 1
    outer loop
      vertex -6.13414 6.62772 1
      vertex -1.39999 3.14372 1
      vertex -6.33379 7.01953 1
    endloop
  endfacet
  facet normal 0 0 1
    outer loop
      vertex -1.39999 3.14372 1
      vertex -6.50842 7.42313 1
      vertex -6.33379 7.01953 1
    endloop
  endfacet
  facet normal 0 0 1
    outer loop
      vertex -1.39999 3.14372 1
      vertex -6.13414 6.62772 1
      vertex -5.91029 6.24921 1
    endloop
  endfacet
  facet normal 0 0 1
    outer loop
      vertex -1.39999 3.14372 1
      vertex -5.91029 6.24921 1
      vertex -5.66312 5.8855 1
    endloop
  endfacet
  facet normal 0 0 1
    outer loop
      vertex -1.39999 3.14372 1
      vertex -5.66312 5.8855 1
      vertex -5.39359 5.53802 1
    endloop
  endfacet
  facet normal 0 0 1
    outer loop
      vertex -1.39999 3.14372 1
      vertex -5.39359 5.53802 1
      vertex -5.10277 5.20816 1
    endloop
  endfacet
  facet normal 0 0 1
    outer loop
      vertex -1.39999 3.14372 1
      vertex -5.10277 5.20816 1
      vertex -4.79182 4.89722 1
    endloop
  endfacet
  facet normal 0 0 1
    outer loop
      vertex -1.39999 3.14372 1
      vertex -4.79182 4.89722 1
      vertex -4.46196 4.6064 1
    endloop
  endfacet
  facet normal 0 0 1
    outer loop
      vertex -1.39999 3.14372 1
      vertex -4.46196 4.6064 1
      vertex -4.11449 4.33687 1
    endloop
  endfacet
  facet normal 0 0 1
    outer loop
      vertex -1.39999 3.14372 1
      vertex -4.11449 4.33687 1
      vertex -3.75078 4.08969 1
    endloop
  endfacet
  facet normal 0 0 1
    outer loop
      vertex -1.39999 3.14372 1
      vertex -3.75078 4.08969 1
      vertex -3.37227 3.86584 1
    endloop
  endfacet
  facet normal 0 0 1
    outer loop
      vertex -1.39999 3.14372 1
      vertex -3.37227 3.86584 1
      vertex -2.98045 3.6662 1
    endloop
  endfacet
  facet normal 0 0 1
    outer loop
      vertex -1.39999 3.14372 1
      vertex -2.98045 3.6662 1
      vertex -2.57686 3.49156 1
    endloop
  endfacet
  facet normal 0 0 1
    outer loop
      vertex -1.39999 3.14372 1
      vertex -2.57686 3.49156 1
      vertex -2.16312 3.34259 1
    endloop
  endfacet
  facet normal 0 0 1
    outer loop
      vertex -1.39999 3.14372 1
      vertex -2.16312 3.34259 1
      vertex -1.74081 3.21991 1
    endloop
  endfacet
  facet normal 0 0 1
    outer loop
      vertex 1.39999 3.14372 1
      vertex -1.39999 3.14372 1
      vertex 1.39999 0 1
    endloop
  endfacet
  facet normal 0 0 1
    outer loop
      vertex 1.39999 3.14372 1
      vertex 0.439529 16.9862 1
      vertex -1.39999 3.14372 1
    endloop
  endfacet
  facet normal 0 0 1
    outer loop
      vertex -1.39999 3.14372 1
      vertex -1.39999 0 1
      vertex 1.39999 0 1
    endloop
  endfacet
  facet normal 0.218164 -0.975912 0
    outer loop
      vertex 1.74081 3.21991 0
      vertex 1.39999 3.14372 1
      vertex 1.39999 3.14372 0
    endloop
  endfacet
  facet normal 0.218164 -0.975912 0
    outer loop
      vertex 1.74081 3.21991 0
      vertex 1.74081 3.21991 1
      vertex 1.39999 3.14372 1
    endloop
  endfacet
  facet normal 0.278965 -0.960301 0
    outer loop
      vertex 2.16312 3.34259 0
      vertex 1.74081 3.21991 1
      vertex 1.74081 3.21991 0
    endloop
  endfacet
  facet normal 0.278965 -0.960301 0
    outer loop
      vertex 2.16312 3.34259 0
      vertex 2.16312 3.34259 1
      vertex 1.74081 3.21991 1
    endloop
  endfacet
  facet normal 0.338767 -0.94087 0
    outer loop
      vertex 2.57686 3.49156 0
      vertex 2.16312 3.34259 1
      vertex 2.16312 3.34259 0
    endloop
  endfacet
  facet normal 0.338767 -0.94087 0
    outer loop
      vertex 2.57686 3.49156 0
      vertex 2.57686 3.49156 1
      vertex 2.16312 3.34259 1
    endloop
  endfacet
  facet normal 0.397131 -0.917762 0
    outer loop
      vertex 2.98045 3.6662 0
      vertex 2.57686 3.49156 1
      vertex 2.57686 3.49156 0
    endloop
  endfacet
  facet normal 0.397131 -0.917762 0
    outer loop
      vertex 2.98045 3.6662 0
      vertex 2.98045 3.6662 1
      vertex 2.57686 3.49156 1
    endloop
  endfacet
  facet normal 0.453986 -0.891009 0
    outer loop
      vertex 3.37227 3.86584 0
      vertex 2.98045 3.6662 1
      vertex 2.98045 3.6662 0
    endloop
  endfacet
  facet normal 0.453986 -0.891009 0
    outer loop
      vertex 3.37227 3.86584 0
      vertex 3.37227 3.86584 1
      vertex 2.98045 3.6662 1
    endloop
  endfacet
  facet normal 0.509041 -0.860742 0
    outer loop
      vertex 3.75078 4.08969 0
      vertex 3.37227 3.86584 1
      vertex 3.37227 3.86584 0
    endloop
  endfacet
  facet normal 0.509041 -0.860742 0
    outer loop
      vertex 3.75078 4.08969 0
      vertex 3.75078 4.08969 1
      vertex 3.37227 3.86584 1
    endloop
  endfacet
  facet normal 0.562088 -0.827077 0
    outer loop
      vertex 4.11449 4.33687 0
      vertex 3.75078 4.08969 1
      vertex 3.75078 4.08969 0
    endloop
  endfacet
  facet normal 0.562088 -0.827077 0
    outer loop
      vertex 4.11449 4.33687 0
      vertex 4.11449 4.33687 1
      vertex 3.75078 4.08969 1
    endloop
  endfacet
  facet normal 0.612914 -0.79015 0
    outer loop
      vertex 4.46196 4.6064 0
      vertex 4.11449 4.33687 1
      vertex 4.11449 4.33687 0
    endloop
  endfacet
  facet normal 0.612914 -0.79015 0
    outer loop
      vertex 4.46196 4.6064 0
      vertex 4.46196 4.6064 1
      vertex 4.11449 4.33687 1
    endloop
  endfacet
  facet normal 0.661324 -0.750101 0
    outer loop
      vertex 4.79182 4.89722 0
      vertex 4.46196 4.6064 1
      vertex 4.46196 4.6064 0
    endloop
  endfacet
  facet normal 0.661324 -0.750101 0
    outer loop
      vertex 4.79182 4.89722 0
      vertex 4.79182 4.89722 1
      vertex 4.46196 4.6064 1
    endloop
  endfacet
  facet normal 0.707095 -0.707118 0
    outer loop
      vertex 5.10277 5.20816 0
      vertex 4.79182 4.89722 1
      vertex 4.79182 4.89722 0
    endloop
  endfacet
  facet normal 0.707095 -0.707118 0
    outer loop
      vertex 5.10277 5.20816 0
      vertex 5.10277 5.20816 1
      vertex 4.79182 4.89722 1
    endloop
  endfacet
  facet normal 0.750101 -0.661324 0
    outer loop
      vertex 5.39359 5.53802 0
      vertex 5.10277 5.20816 1
      vertex 5.10277 5.20816 0
    endloop
  endfacet
  facet normal 0.750101 -0.661324 0
    outer loop
      vertex 5.39359 5.53802 0
      vertex 5.39359 5.53802 1
      vertex 5.10277 5.20816 1
    endloop
  endfacet
  facet normal 0.790158 -0.612903 0
    outer loop
      vertex 5.66312 5.8855 0
      vertex 5.39359 5.53802 1
      vertex 5.39359 5.53802 0
    endloop
  endfacet
  facet normal 0.790158 -0.612903 0
    outer loop
      vertex 5.66312 5.8855 0
      vertex 5.66312 5.8855 1
      vertex 5.39359 5.53802 1
    endloop
  endfacet
  facet normal 0.827088 -0.562072 0
    outer loop
      vertex 5.91029 6.24921 0
      vertex 5.66312 5.8855 1
      vertex 5.66312 5.8855 0
    endloop
  endfacet
  facet normal 0.827088 -0.562072 0
    outer loop
      vertex 5.91029 6.24921 0
      vertex 5.91029 6.24921 1
      vertex 5.66312 5.8855 1
    endloop
  endfacet
  facet normal 0.860742 -0.509041 0
    outer loop
      vertex 6.13414 6.62772 0
      vertex 5.91029 6.24921 1
      vertex 5.91029 6.24921 0
    endloop
  endfacet
  facet normal 0.860742 -0.509041 0
    outer loop
      vertex 6.13414 6.62772 0
      vertex 6.13414 6.62772 1
      vertex 5.91029 6.24921 1
    endloop
  endfacet
  facet normal 0.890995 -0.454014 0
    outer loop
      vertex 6.33379 7.01953 0
      vertex 6.13414 6.62772 1
      vertex 6.13414 6.62772 0
    endloop
  endfacet
  facet normal 0.890995 -0.454014 0
    outer loop
      vertex 6.33379 7.01953 0
      vertex 6.33379 7.01953 1
      vertex 6.13414 6.62772 1
    endloop
  endfacet
  facet normal 0.917774 -0.397103 0
    outer loop
      vertex 6.50842 7.42313 0
      vertex 6.33379 7.01953 1
      vertex 6.33379 7.01953 0
    endloop
  endfacet
  facet normal 0.917774 -0.397103 0
    outer loop
      vertex 6.50842 7.42313 0
      vertex 6.50842 7.42313 1
      vertex 6.33379 7.01953 1
    endloop
  endfacet
  facet normal 0.94087 -0.338767 0
    outer loop
      vertex 6.65739 7.83687 0
      vertex 6.50842 7.42313 1
      vertex 6.50842 7.42313 0
    endloop
  endfacet
  facet normal 0.94087 -0.338767 0
    outer loop
      vertex 6.65739 7.83687 0
      vertex 6.65739 7.83687 1
      vertex 6.50842 7.42313 1
    endloop
  endfacet
  facet normal 0.960293 -0.278992 0
    outer loop
      vertex 6.78008 8.25917 0
      vertex 6.65739 7.83687 1
      vertex 6.65739 7.83687 0
    endloop
  endfacet
  facet normal 0.960293 -0.278992 0
    outer loop
      vertex 6.78008 8.25917 0
      vertex 6.78008 8.25917 1
      vertex 6.65739 7.83687 1
    endloop
  endfacet
  facet normal 0.975915 -0.218151 0
    outer loop
      vertex 6.87601 8.68832 0
      vertex 6.78008 8.25917 1
      vertex 6.78008 8.25917 0
    endloop
  endfacet
  facet normal 0.975915 -0.218151 0
    outer loop
      vertex 6.87601 8.68832 0
      vertex 6.87601 8.68832 1
      vertex 6.78008 8.25917 1
    endloop
  endfacet
  facet normal 0.987693 -0.156403 0
    outer loop
      vertex 6.94479 9.12267 0
      vertex 6.87601 8.68832 1
      vertex 6.87601 8.68832 0
    endloop
  endfacet
  facet normal 0.987693 -0.156403 0
    outer loop
      vertex 6.94479 9.12267 0
      vertex 6.94479 9.12267 1
      vertex 6.87601 8.68832 1
    endloop
  endfacet
  facet normal 0.995561 -0.0941233 0
    outer loop
      vertex 6.98618 9.56046 0
      vertex 6.94479 9.12267 1
      vertex 6.94479 9.12267 0
    endloop
  endfacet
  facet normal 0.995561 -0.0941233 0
    outer loop
      vertex 6.98618 9.56046 0
      vertex 6.98618 9.56046 1
      vertex 6.94479 9.12267 1
    endloop
  endfacet
  facet normal 0.999506 -0.0314264 0
    outer loop
      vertex 7 10 0
      vertex 6.98618 9.56046 1
      vertex 6.98618 9.56046 0
    endloop
  endfacet
  facet normal 0.999506 -0.0314264 0
    outer loop
      vertex 7 10 0
      vertex 7 10 1
      vertex 6.98618 9.56046 1
    endloop
  endfacet
  facet normal 0.999506 0.0314293 0
    outer loop
      vertex 6.98618 10.4395 0
      vertex 7 10 1
      vertex 7 10 0
    endloop
  endfacet
  facet normal 0.999506 0.0314293 -0
    outer loop
      vertex 6.98618 10.4395 0
      vertex 6.98618 10.4395 1
      vertex 7 10 1
    endloop
  endfacet
  facet normal 0.995561 0.0941212 0
    outer loop
      vertex 6.94479 10.8773 0
      vertex 6.98618 10.4395 1
      vertex 6.98618 10.4395 0
    endloop
  endfacet
  facet normal 0.995561 0.0941212 -0
    outer loop
      vertex 6.94479 10.8773 0
      vertex 6.94479 10.8773 1
      vertex 6.98618 10.4395 1
    endloop
  endfacet
  facet normal 0.987696 0.156385 0
    outer loop
      vertex 6.87601 11.3117 0
      vertex 6.94479 10.8773 1
      vertex 6.94479 10.8773 0
    endloop
  endfacet
  facet normal 0.987696 0.156385 -0
    outer loop
      vertex 6.87601 11.3117 0
      vertex 6.87601 11.3117 1
      vertex 6.94479 10.8773 1
    endloop
  endfacet
  facet normal 0.97591 0.218175 0
    outer loop
      vertex 6.78008 11.7408 0
      vertex 6.87601 11.3117 1
      vertex 6.87601 11.3117 0
    endloop
  endfacet
  facet normal 0.97591 0.218175 -0
    outer loop
      vertex 6.78008 11.7408 0
      vertex 6.78008 11.7408 1
      vertex 6.87601 11.3117 1
    endloop
  endfacet
  facet normal 0.960293 0.278992 0
    outer loop
      vertex 6.65739 12.1631 0
      vertex 6.78008 11.7408 1
      vertex 6.78008 11.7408 0
    endloop
  endfacet
  facet normal 0.960293 0.278992 -0
    outer loop
      vertex 6.65739 12.1631 0
      vertex 6.65739 12.1631 1
      vertex 6.78008 11.7408 1
    endloop
  endfacet
  facet normal 0.940886 0.338723 0
    outer loop
      vertex 6.50842 12.5769 0
      vertex 6.65739 12.1631 1
      vertex 6.65739 12.1631 0
    endloop
  endfacet
  facet normal 0.940886 0.338723 -0
    outer loop
      vertex 6.50842 12.5769 0
      vertex 6.50842 12.5769 1
      vertex 6.65739 12.1631 1
    endloop
  endfacet
  facet normal 0.917774 0.397103 0
    outer loop
      vertex 6.33379 12.9805 0
      vertex 6.50842 12.5769 1
      vertex 6.50842 12.5769 0
    endloop
  endfacet
  facet normal 0.917774 0.397103 -0
    outer loop
      vertex 6.33379 12.9805 0
      vertex 6.33379 12.9805 1
      vertex 6.50842 12.5769 1
    endloop
  endfacet
  facet normal 0.89099 0.454023 0
    outer loop
      vertex 6.13414 13.3723 0
      vertex 6.33379 12.9805 1
      vertex 6.33379 12.9805 0
    endloop
  endfacet
  facet normal 0.89099 0.454023 -0
    outer loop
      vertex 6.13414 13.3723 0
      vertex 6.13414 13.3723 1
      vertex 6.33379 12.9805 1
    endloop
  endfacet
  facet normal 0.860736 0.509051 0
    outer loop
      vertex 5.91029 13.7508 0
      vertex 6.13414 13.3723 1
      vertex 6.13414 13.3723 0
    endloop
  endfacet
  facet normal 0.860736 0.509051 -0
    outer loop
      vertex 5.91029 13.7508 0
      vertex 5.91029 13.7508 1
      vertex 6.13414 13.3723 1
    endloop
  endfacet
  facet normal 0.827081 0.562083 0
    outer loop
      vertex 5.66312 14.1145 0
      vertex 5.91029 13.7508 1
      vertex 5.91029 13.7508 0
    endloop
  endfacet
  facet normal 0.827081 0.562083 -0
    outer loop
      vertex 5.66312 14.1145 0
      vertex 5.66312 14.1145 1
      vertex 5.91029 13.7508 1
    endloop
  endfacet
  facet normal 0.790176 0.612881 0
    outer loop
      vertex 5.39359 14.462 0
      vertex 5.66312 14.1145 1
      vertex 5.66312 14.1145 0
    endloop
  endfacet
  facet normal 0.790176 0.612881 -0
    outer loop
      vertex 5.39359 14.462 0
      vertex 5.39359 14.462 1
      vertex 5.66312 14.1145 1
    endloop
  endfacet
  facet normal 0.750041 0.661391 0
    outer loop
      vertex 5.10277 14.7918 0
      vertex 5.39359 14.462 1
      vertex 5.39359 14.462 0
    endloop
  endfacet
  facet normal 0.750041 0.661391 -0
    outer loop
      vertex 5.10277 14.7918 0
      vertex 5.10277 14.7918 1
      vertex 5.39359 14.462 1
    endloop
  endfacet
  facet normal 0.707164 0.70705 0
    outer loop
      vertex 4.79182 15.1028 0
      vertex 5.10277 14.7918 1
      vertex 5.10277 14.7918 0
    endloop
  endfacet
  facet normal 0.707164 0.70705 -0
    outer loop
      vertex 4.79182 15.1028 0
      vertex 4.79182 15.1028 1
      vertex 5.10277 14.7918 1
    endloop
  endfacet
  facet normal 0.661298 0.750123 0
    outer loop
      vertex 4.46196 15.3936 0
      vertex 4.79182 15.1028 1
      vertex 4.79182 15.1028 0
    endloop
  endfacet
  facet normal 0.661298 0.750123 -0
    outer loop
      vertex 4.46196 15.3936 0
      vertex 4.46196 15.3936 1
      vertex 4.79182 15.1028 1
    endloop
  endfacet
  facet normal 0.612871 0.790183 0
    outer loop
      vertex 4.11449 15.6631 0
      vertex 4.46196 15.3936 1
      vertex 4.46196 15.3936 0
    endloop
  endfacet
  facet normal 0.612871 0.790183 -0
    outer loop
      vertex 4.11449 15.6631 0
      vertex 4.11449 15.6631 1
      vertex 4.46196 15.3936 1
    endloop
  endfacet
  facet normal 0.562119 0.827056 0
    outer loop
      vertex 3.75078 15.9103 0
      vertex 4.11449 15.6631 1
      vertex 4.11449 15.6631 0
    endloop
  endfacet
  facet normal 0.562119 0.827056 -0
    outer loop
      vertex 3.75078 15.9103 0
      vertex 3.75078 15.9103 1
      vertex 4.11449 15.6631 1
    endloop
  endfacet
  facet normal 0.508957 0.860792 0
    outer loop
      vertex 3.37227 16.1341 0
      vertex 3.75078 15.9103 1
      vertex 3.75078 15.9103 0
    endloop
  endfacet
  facet normal 0.508957 0.860792 -0
    outer loop
      vertex 3.37227 16.1341 0
      vertex 3.37227 16.1341 1
      vertex 3.75078 15.9103 1
    endloop
  endfacet
  facet normal 0.454095 0.890953 0
    outer loop
      vertex 2.98045 16.3338 0
      vertex 3.37227 16.1341 1
      vertex 3.37227 16.1341 0
    endloop
  endfacet
  facet normal 0.454095 0.890953 -0
    outer loop
      vertex 2.98045 16.3338 0
      vertex 2.98045 16.3338 1
      vertex 3.37227 16.1341 1
    endloop
  endfacet
  facet normal 0.397054 0.917795 0
    outer loop
      vertex 2.57686 16.5084 0
      vertex 2.98045 16.3338 1
      vertex 2.98045 16.3338 0
    endloop
  endfacet
  facet normal 0.397054 0.917795 -0
    outer loop
      vertex 2.57686 16.5084 0
      vertex 2.57686 16.5084 1
      vertex 2.98045 16.3338 1
    endloop
  endfacet
  facet normal 0.338827 0.940849 0
    outer loop
      vertex 2.16312 16.6574 0
      vertex 2.57686 16.5084 1
      vertex 2.57686 16.5084 0
    endloop
  endfacet
  facet normal 0.338827 0.940849 -0
    outer loop
      vertex 2.16312 16.6574 0
      vertex 2.16312 16.6574 1
      vertex 2.57686 16.5084 1
    endloop
  endfacet
  facet normal 0.279007 0.960289 0
    outer loop
      vertex 1.74081 16.7801 0
      vertex 2.16312 16.6574 1
      vertex 2.16312 16.6574 0
    endloop
  endfacet
  facet normal 0.279007 0.960289 -0
    outer loop
      vertex 1.74081 16.7801 0
      vertex 1.74081 16.7801 1
      vertex 2.16312 16.6574 1
    endloop
  endfacet
  facet normal 0.218086 0.97593 0
    outer loop
      vertex 1.31166 16.876 0
      vertex 1.74081 16.7801 1
      vertex 1.74081 16.7801 0
    endloop
  endfacet
  facet normal 0.218086 0.97593 -0
    outer loop
      vertex 1.31166 16.876 0
      vertex 1.31166 16.876 1
      vertex 1.74081 16.7801 1
    endloop
  endfacet
  facet normal 0.15645 0.987686 0
    outer loop
      vertex 0.877319 16.9448 0
      vertex 1.31166 16.876 1
      vertex 1.31166 16.876 0
    endloop
  endfacet
  facet normal 0.15645 0.987686 -0
    outer loop
      vertex 0.877319 16.9448 0
      vertex 0.877319 16.9448 1
      vertex 1.31166 16.876 1
    endloop
  endfacet
  facet normal 0.0941459 0.995558 0
    outer loop
      vertex 0.439529 16.9862 0
      vertex 0.877319 16.9448 1
      vertex 0.877319 16.9448 0
    endloop
  endfacet
  facet normal 0.0941459 0.995558 -0
    outer loop
      vertex 0.439529 16.9862 0
      vertex 0.439529 16.9862 1
      vertex 0.877319 16.9448 1
    endloop
  endfacet
  facet normal 0.0313818 0.999507 0
    outer loop
      vertex 0 17 0
      vertex 0.439529 16.9862 1
      vertex 0.439529 16.9862 0
    endloop
  endfacet
  facet normal 0.0313818 0.999507 -0
    outer loop
      vertex 0 17 0
      vertex 0 17 1
      vertex 0.439529 16.9862 1
    endloop
  endfacet
  facet normal -0.0313818 0.999507 0
    outer loop
      vertex -0.439529 16.9862 0
      vertex 0 17 1
      vertex 0 17 0
    endloop
  endfacet
  facet normal -0.0313818 0.999507 0
    outer loop
      vertex -0.439529 16.9862 0
      vertex -0.439529 16.9862 1
      vertex 0 17 1
    endloop
  endfacet
  facet normal -0.0941459 0.995558 0
    outer loop
      vertex -0.877319 16.9448 0
      vertex -0.439529 16.9862 1
      vertex -0.439529 16.9862 0
    endloop
  endfacet
  facet normal -0.0941459 0.995558 0
    outer loop
      vertex -0.877319 16.9448 0
      vertex -0.877319 16.9448 1
      vertex -0.439529 16.9862 1
    endloop
  endfacet
  facet normal -0.15645 0.987686 0
    outer loop
      vertex -1.31166 16.876 0
      vertex -0.877319 16.9448 1
      vertex -0.877319 16.9448 0
    endloop
  endfacet
  facet normal -0.15645 0.987686 0
    outer loop
      vertex -1.31166 16.876 0
      vertex -1.31166 16.876 1
      vertex -0.877319 16.9448 1
    endloop
  endfacet
  facet normal -0.218086 0.97593 0
    outer loop
      vertex -1.74081 16.7801 0
      vertex -1.31166 16.876 1
      vertex -1.31166 16.876 0
    endloop
  endfacet
  facet normal -0.218086 0.97593 0
    outer loop
      vertex -1.74081 16.7801 0
      vertex -1.74081 16.7801 1
      vertex -1.31166 16.876 1
    endloop
  endfacet
  facet normal -0.279007 0.960289 0
    outer loop
      vertex -2.16312 16.6574 0
      vertex -1.74081 16.7801 1
      vertex -1.74081 16.7801 0
    endloop
  endfacet
  facet normal -0.279007 0.960289 0
    outer loop
      vertex -2.16312 16.6574 0
      vertex -2.16312 16.6574 1
      vertex -1.74081 16.7801 1
    endloop
  endfacet
  facet normal -0.338827 0.940849 0
    outer loop
      vertex -2.57686 16.5084 0
      vertex -2.16312 16.6574 1
      vertex -2.16312 16.6574 0
    endloop
  endfacet
  facet normal -0.338827 0.940849 0
    outer loop
      vertex -2.57686 16.5084 0
      vertex -2.57686 16.5084 1
      vertex -2.16312 16.6574 1
    endloop
  endfacet
  facet normal -0.397054 0.917795 0
    outer loop
      vertex -2.98045 16.3338 0
      vertex -2.57686 16.5084 1
      vertex -2.57686 16.5084 0
    endloop
  endfacet
  facet normal -0.397054 0.917795 0
    outer loop
      vertex -2.98045 16.3338 0
      vertex -2.98045 16.3338 1
      vertex -2.57686 16.5084 1
    endloop
  endfacet
  facet normal -0.454095 0.890953 0
    outer loop
      vertex -3.37227 16.1341 0
      vertex -2.98045 16.3338 1
      vertex -2.98045 16.3338 0
    endloop
  endfacet
  facet normal -0.454095 0.890953 0
    outer loop
      vertex -3.37227 16.1341 0
      vertex -3.37227 16.1341 1
      vertex -2.98045 16.3338 1
    endloop
  endfacet
  facet normal -0.508957 0.860792 0
    outer loop
      vertex -3.75078 15.9103 0
      vertex -3.37227 16.1341 1
      vertex -3.37227 16.1341 0
    endloop
  endfacet
  facet normal -0.508957 0.860792 0
    outer loop
      vertex -3.75078 15.9103 0
      vertex -3.75078 15.9103 1
      vertex -3.37227 16.1341 1
    endloop
  endfacet
  facet normal -0.562119 0.827056 0
    outer loop
      vertex -4.11449 15.6631 0
      vertex -3.75078 15.9103 1
      vertex -3.75078 15.9103 0
    endloop
  endfacet
  facet normal -0.562119 0.827056 0
    outer loop
      vertex -4.11449 15.6631 0
      vertex -4.11449 15.6631 1
      vertex -3.75078 15.9103 1
    endloop
  endfacet
  facet normal -0.612871 0.790183 0
    outer loop
      vertex -4.46196 15.3936 0
      vertex -4.11449 15.6631 1
      vertex -4.11449 15.6631 0
    endloop
  endfacet
  facet normal -0.612871 0.790183 0
    outer loop
      vertex -4.46196 15.3936 0
      vertex -4.46196 15.3936 1
      vertex -4.11449 15.6631 1
    endloop
  endfacet
  facet normal -0.661298 0.750123 0
    outer loop
      vertex -4.79182 15.1028 0
      vertex -4.46196 15.3936 1
      vertex -4.46196 15.3936 0
    endloop
  endfacet
  facet normal -0.661298 0.750123 0
    outer loop
      vertex -4.79182 15.1028 0
      vertex -4.79182 15.1028 1
      vertex -4.46196 15.3936 1
    endloop
  endfacet
  facet normal -0.707164 0.70705 0
    outer loop
      vertex -5.10277 14.7918 0
      vertex -4.79182 15.1028 1
      vertex -4.79182 15.1028 0
    endloop
  endfacet
  facet normal -0.707164 0.70705 0
    outer loop
      vertex -5.10277 14.7918 0
      vertex -5.10277 14.7918 1
      vertex -4.79182 15.1028 1
    endloop
  endfacet
  facet normal -0.750041 0.661391 0
    outer loop
      vertex -5.39359 14.462 0
      vertex -5.10277 14.7918 1
      vertex -5.10277 14.7918 0
    endloop
  endfacet
  facet normal -0.750041 0.661391 0
    outer loop
      vertex -5.39359 14.462 0
      vertex -5.39359 14.462 1
      vertex -5.10277 14.7918 1
    endloop
  endfacet
  facet normal -0.790176 0.612881 0
    outer loop
      vertex -5.66312 14.1145 0
      vertex -5.39359 14.462 1
      vertex -5.39359 14.462 0
    endloop
  endfacet
  facet normal -0.790176 0.612881 0
    outer loop
      vertex -5.66312 14.1145 0
      vertex -5.66312 14.1145 1
      vertex -5.39359 14.462 1
    endloop
  endfacet
  facet normal -0.827081 0.562083 0
    outer loop
      vertex -5.91029 13.7508 0
      vertex -5.66312 14.1145 1
      vertex -5.66312 14.1145 0
    endloop
  endfacet
  facet normal -0.827081 0.562083 0
    outer loop
      vertex -5.91029 13.7508 0
      vertex -5.91029 13.7508 1
      vertex -5.66312 14.1145 1
    endloop
  endfacet
  facet normal -0.860736 0.509051 0
    outer loop
      vertex -6.13414 13.3723 0
      vertex -5.91029 13.7508 1
      vertex -5.91029 13.7508 0
    endloop
  endfacet
  facet normal -0.860736 0.509051 0
    outer loop
      vertex -6.13414 13.3723 0
      vertex -6.13414 13.3723 1
      vertex -5.91029 13.7508 1
    endloop
  endfacet
  facet normal -0.89099 0.454023 0
    outer loop
      vertex -6.33379 12.9805 0
      vertex -6.13414 13.3723 1
      vertex -6.13414 13.3723 0
    endloop
  endfacet
  facet normal -0.89099 0.454023 0
    outer loop
      vertex -6.33379 12.9805 0
      vertex -6.33379 12.9805 1
      vertex -6.13414 13.3723 1
    endloop
  endfacet
  facet normal -0.917774 0.397103 0
    outer loop
      vertex -6.50842 12.5769 0
      vertex -6.33379 12.9805 1
      vertex -6.33379 12.9805 0
    endloop
  endfacet
  facet normal -0.917774 0.397103 0
    outer loop
      vertex -6.50842 12.5769 0
      vertex -6.50842 12.5769 1
      vertex -6.33379 12.9805 1
    endloop
  endfacet
  facet normal -0.940886 0.338723 0
    outer loop
      vertex -6.65739 12.1631 0
      vertex -6.50842 12.5769 1
      vertex -6.50842 12.5769 0
    endloop
  endfacet
  facet normal -0.940886 0.338723 0
    outer loop
      vertex -6.65739 12.1631 0
      vertex -6.65739 12.1631 1
      vertex -6.50842 12.5769 1
    endloop
  endfacet
  facet normal -0.960293 0.278992 0
    outer loop
      vertex -6.78008 11.7408 0
      vertex -6.65739 12.1631 1
      vertex -6.65739 12.1631 0
    endloop
  endfacet
  facet normal -0.960293 0.278992 0
    outer loop
      vertex -6.78008 11.7408 0
      vertex -6.78008 11.7408 1
      vertex -6.65739 12.1631 1
    endloop
  endfacet
  facet normal -0.97591 0.218175 0
    outer loop
      vertex -6.87601 11.3117 0
      vertex -6.78008 11.7408 1
      vertex -6.78008 11.7408 0
    endloop
  endfacet
  facet normal -0.97591 0.218175 0
    outer loop
      vertex -6.87601 11.3117 0
      vertex -6.87601 11.3117 1
      vertex -6.78008 11.7408 1
    endloop
  endfacet
  facet normal -0.987696 0.156385 0
    outer loop
      vertex -6.94479 10.8773 0
      vertex -6.87601 11.3117 1
      vertex -6.87601 11.3117 0
    endloop
  endfacet
  facet normal -0.987696 0.156385 0
    outer loop
      vertex -6.94479 10.8773 0
      vertex -6.94479 10.8773 1
      vertex -6.87601 11.3117 1
    endloop
  endfacet
  facet normal -0.995561 0.0941212 0
    outer loop
      vertex -6.98618 10.4395 0
      vertex -6.94479 10.8773 1
      vertex -6.94479 10.8773 0
    endloop
  endfacet
  facet normal -0.995561 0.0941212 0
    outer loop
      vertex -6.98618 10.4395 0
      vertex -6.98618 10.4395 1
      vertex -6.94479 10.8773 1
    endloop
  endfacet
  facet normal -0.999506 0.0314293 0
    outer loop
      vertex -7 10 0
      vertex -6.98618 10.4395 1
      vertex -6.98618 10.4395 0
    endloop
  endfacet
  facet normal -0.999506 0.0314293 0
    outer loop
      vertex -7 10 0
      vertex -7 10 1
      vertex -6.98618 10.4395 1
    endloop
  endfacet
  facet normal -0.999506 -0.0314264 0
    outer loop
      vertex -6.98618 9.56046 0
      vertex -7 10 1
      vertex -7 10 0
    endloop
  endfacet
  facet normal -0.999506 -0.0314264 0
    outer loop
      vertex -6.98618 9.56046 0
      vertex -6.98618 9.56046 1
      vertex -7 10 1
    endloop
  endfacet
  facet normal -0.995561 -0.0941233 0
    outer loop
      vertex -6.94479 9.12267 0
      vertex -6.98618 9.56046 1
      vertex -6.98618 9.56046 0
    endloop
  endfacet
  facet normal -0.995561 -0.0941233 0
    outer loop
      vertex -6.94479 9.12267 0
      vertex -6.94479 9.12267 1
      vertex -6.98618 9.56046 1
    endloop
  endfacet
  facet normal -0.987693 -0.156403 0
    outer loop
      vertex -6.87601 8.68832 0
      vertex -6.94479 9.12267 1
      vertex -6.94479 9.12267 0
    endloop
  endfacet
  facet normal -0.987693 -0.156403 0
    outer loop
      vertex -6.87601 8.68832 0
      vertex -6.87601 8.68832 1
      vertex -6.94479 9.12267 1
    endloop
  endfacet
  facet normal -0.975915 -0.218151 0
    outer loop
      vertex -6.78008 8.25917 0
      vertex -6.87601 8.68832 1
      vertex -6.87601 8.68832 0
    endloop
  endfacet
  facet normal -0.975915 -0.218151 0
    outer loop
      vertex -6.78008 8.25917 0
      vertex -6.78008 8.25917 1
      vertex -6.87601 8.68832 1
    endloop
  endfacet
  facet normal -0.960293 -0.278992 0
    outer loop
      vertex -6.65739 7.83687 0
      vertex -6.78008 8.25917 1
      vertex -6.78008 8.25917 0
    endloop
  endfacet
  facet normal -0.960293 -0.278992 0
    outer loop
      vertex -6.65739 7.83687 0
      vertex -6.65739 7.83687 1
      vertex -6.78008 8.25917 1
    endloop
  endfacet
  facet normal -0.94087 -0.338767 0
    outer loop
      vertex -6.50842 7.42313 0
      vertex -6.65739 7.83687 1
      vertex -6.65739 7.83687 0
    endloop
  endfacet
  facet normal -0.94087 -0.338767 0
    outer loop
      vertex -6.50842 7.42313 0
      vertex -6.50842 7.42313 1
      vertex -6.65739 7.83687 1
    endloop
  endfacet
  facet normal -0.917774 -0.397103 0
    outer loop
      vertex -6.33379 7.01953 0
      vertex -6.50842 7.42313 1
      vertex -6.50842 7.42313 0
    endloop
  endfacet
  facet normal -0.917774 -0.397103 0
    outer loop
      vertex -6.33379 7.01953 0
      vertex -6.33379 7.01953 1
      vertex -6.50842 7.42313 1
    endloop
  endfacet
  facet normal -0.890995 -0.454014 0
    outer loop
      vertex -6.13414 6.62772 0
      vertex -6.33379 7.01953 1
      vertex -6.33379 7.01953 0
    endloop
  endfacet
  facet normal -0.890995 -0.454014 0
    outer loop
      vertex -6.13414 6.62772 0
      vertex -6.13414 6.62772 1
      vertex -6.33379 7.01953 1
    endloop
  endfacet
  facet normal -0.860742 -0.509041 0
    outer loop
      vertex -5.91029 6.24921 0
      vertex -6.13414 6.62772 1
      vertex -6.13414 6.62772 0
    endloop
  endfacet
  facet normal -0.860742 -0.509041 0
    outer loop
      vertex -5.91029 6.24921 0
      vertex -5.91029 6.24921 1
      vertex -6.13414 6.62772 1
    endloop
  endfacet
  facet normal -0.827088 -0.562072 0
    outer loop
      vertex -5.66312 5.8855 0
      vertex -5.91029 6.24921 1
      vertex -5.91029 6.24921 0
    endloop
  endfacet
  facet normal -0.827088 -0.562072 0
    outer loop
      vertex -5.66312 5.8855 0
      vertex -5.66312 5.8855 1
      vertex -5.91029 6.24921 1
    endloop
  endfacet
  facet normal -0.790158 -0.612903 0
    outer loop
      vertex -5.39359 5.53802 0
      vertex -5.66312 5.8855 1
      vertex -5.66312 5.8855 0
    endloop
  endfacet
  facet normal -0.790158 -0.612903 0
    outer loop
      vertex -5.39359 5.53802 0
      vertex -5.39359 5.53802 1
      vertex -5.66312 5.8855 1
    endloop
  endfacet
  facet normal -0.750101 -0.661324 0
    outer loop
      vertex -5.10277 5.20816 0
      vertex -5.39359 5.53802 1
      vertex -5.39359 5.53802 0
    endloop
  endfacet
  facet normal -0.750101 -0.661324 0
    outer loop
      vertex -5.10277 5.20816 0
      vertex -5.10277 5.20816 1
      vertex -5.39359 5.53802 1
    endloop
  endfacet
  facet normal -0.707095 -0.707118 0
    outer loop
      vertex -4.79182 4.89722 0
      vertex -5.10277 5.20816 1
      vertex -5.10277 5.20816 0
    endloop
  endfacet
  facet normal -0.707095 -0.707118 0
    outer loop
      vertex -4.79182 4.89722 0
      vertex -4.79182 4.89722 1
      vertex -5.10277 5.20816 1
    endloop
  endfacet
  facet normal -0.661324 -0.750101 0
    outer loop
      vertex -4.46196 4.6064 0
      vertex -4.79182 4.89722 1
      vertex -4.79182 4.89722 0
    endloop
  endfacet
  facet normal -0.661324 -0.750101 0
    outer loop
      vertex -4.46196 4.6064 0
      vertex -4.46196 4.6064 1
      vertex -4.79182 4.89722 1
    endloop
  endfacet
  facet normal -0.612914 -0.79015 0
    outer loop
      vertex -4.11449 4.33687 0
      vertex -4.46196 4.6064 1
      vertex -4.46196 4.6064 0
    endloop
  endfacet
  facet normal -0.612914 -0.79015 0
    outer loop
      vertex -4.11449 4.33687 0
      vertex -4.11449 4.33687 1
      vertex -4.46196 4.6064 1
    endloop
  endfacet
  facet normal -0.562088 -0.827077 0
    outer loop
      vertex -3.75078 4.08969 0
      vertex -4.11449 4.33687 1
      vertex -4.11449 4.33687 0
    endloop
  endfacet
  facet normal -0.562088 -0.827077 0
    outer loop
      vertex -3.75078 4.08969 0
      vertex -3.75078 4.08969 1
      vertex -4.11449 4.33687 1
    endloop
  endfacet
  facet normal -0.509041 -0.860742 0
    outer loop
      vertex -3.37227 3.86584 0
      vertex -3.75078 4.08969 1
      vertex -3.75078 4.08969 0
    endloop
  endfacet
  facet normal -0.509041 -0.860742 0
    outer loop
      vertex -3.37227 3.86584 0
      vertex -3.37227 3.86584 1
      vertex -3.75078 4.08969 1
    endloop
  endfacet
  facet normal -0.453986 -0.891009 0
    outer loop
      vertex -2.98045 3.6662 0
      vertex -3.37227 3.86584 1
      vertex -3.37227 3.86584 0
    endloop
  endfacet
  facet normal -0.453986 -0.891009 0
    outer loop
      vertex -2.98045 3.6662 0
      vertex -2.98045 3.6662 1
      vertex -3.37227 3.86584 1
    endloop
  endfacet
  facet normal -0.397131 -0.917762 0
    outer loop
      vertex -2.57686 3.49156 0
      vertex -2.98045 3.6662 1
      vertex -2.98045 3.6662 0
    endloop
  endfacet
  facet normal -0.397131 -0.917762 0
    outer loop
      vertex -2.57686 3.49156 0
      vertex -2.57686 3.49156 1
      vertex -2.98045 3.6662 1
    endloop
  endfacet
  facet normal -0.338767 -0.94087 0
    outer loop
      vertex -2.16312 3.34259 0
      vertex -2.57686 3.49156 1
      vertex -2.57686 3.49156 0
    endloop
  endfacet
  facet normal -0.338767 -0.94087 0
    outer loop
      vertex -2.16312 3.34259 0
      vertex -2.16312 3.34259 1
      vertex -2.57686 3.49156 1
    endloop
  endfacet
  facet normal -0.278965 -0.960301 0
    outer loop
      vertex -1.74081 3.21991 0
      vertex -2.16312 3.34259 1
      vertex -2.16312 3.34259 0
    endloop
  endfacet
  facet normal -0.278965 -0.960301 0
    outer loop
      vertex -1.74081 3.21991 0
      vertex -1.74081 3.21991 1
      vertex -2.16312 3.34259 1
    endloop
  endfacet
  facet normal -0.218164 -0.975912 0
    outer loop
      vertex -1.39999 3.14372 0
      vertex -1.74081 3.21991 1
      vertex -1.74081 3.21991 0
    endloop
  endfacet
  facet normal -0.218164 -0.975912 0
    outer loop
      vertex -1.39999 3.14372 0
      vertex -1.39999 3.14372 1
      vertex -1.74081 3.21991 1
    endloop
  endfacet
  facet normal -1 0 0
    outer loop
      vertex -1.39999 0 0
      vertex -1.39999 3.14372 1
      vertex -1.39999 3.14372 0
    endloop
  endfacet
  facet normal -1 0 0
    outer loop
      vertex -1.39999 0 0
      vertex -1.39999 0 1
      vertex -1.39999 3.14372 1
    endloop
  endfacet
  facet normal 0 -1 0
    outer loop
      vertex 1.39999 0 0
      vertex -1.39999 0 1
      vertex -1.39999 0 0
    endloop
  endfacet
  facet normal 0 -1 0
    outer loop
      vertex 1.39999 0 0
      vertex 1.39999 0 1
      vertex -1.39999 0 1
    endloop
  endfacet
  facet normal 1 0 0
    outer loop
      vertex 1.39999 3.14372 0
      vertex 1.39999 0 1
      vertex 1.39999 0 0
    endloop
  endfacet
  facet normal 1 0 -0
    outer loop
      vertex 1.39999 3.14372 0
      vertex 1.39999 3.14372 1
      vertex 1.39999 0 1
    endloop
  endfacet
endsolid OpenSCAD_Model
